<svg xmlns="http://www.w3.org/2000/svg" viewBox="0 0 64 64" role="img" aria-labelledby="kickevent-mark-title">
  <title id="kickevent-mark-title">KickEvent Fußball</title>
  <defs>
    <clipPath id="football-clip">
      <circle cx="32" cy="31" r="20"/>
    </clipPath>
  </defs>
  <rect x="1" y="1" width="62" height="62" rx="16" fill="#101b26" stroke="#2d465b" stroke-width="2"/>
  <circle cx="32" cy="31" r="20" fill="#f4f7f5" stroke="#58d218" stroke-width="2.5"/>
  <g clip-path="url(#football-clip)" fill="#101b26" stroke="#101b26" stroke-linecap="round" stroke-linejoin="round">
    <path d="m32 22.5 8.8 6.3-3.4 10.3H26.6l-3.4-10.3z" stroke-width="1.5"/>
    <path d="M32 22.5 32 10.5M40.8 28.8 51 22.5M37.4 39.1 44.8 50M26.6 39.1 19.2 50M23.2 28.8 13 22.5" fill="none" stroke-width="2.6"/>
    <path d="m28.4 13.2 3.6-2.7 3.6 2.7-.8 6.1-2.8 3.2-2.8-3.2z" stroke-width="1.2"/>
    <path d="m47.5 20.3 4.1 2.2 1.4 4.5-3 3.2-5.2-1.4-3.1-3.3z" stroke-width="1.2"/>
    <path d="m43.2 45.4 3.7 1.3 1.8 4.2-2.5 3.8-4.5-.4-2.8-5.2z" stroke-width="1.2"/>
    <path d="m20.8 45.4 4.3 3.7-2.8 5.2-4.5.4-2.5-3.8 1.8-4.2z" stroke-width="1.2"/>
    <path d="m16.5 20.3 5.8 5.2-3.1 3.3-5.2 1.4-3-3.2 1.4-4.5z" stroke-width="1.2"/>
  </g>
  <path d="M13.5 46a21 21 0 0 0 37 0" fill="none" stroke="#58d218" stroke-width="2.5" stroke-linecap="round"/>
</svg>
