<?xml version="1.0" encoding="utf-8"?>
<svg  viewBox="-0.424 -0.64 900.424 512.901" xmlns="http://www.w3.org/2000/svg">
  <defs>
    <linearGradient gradientTransform="matrix(6.123233995736766e-17,1,-1,6.123233995736766e-17,0,0)" id="SvgjsLinearGradient1061">
      <stop stop-color="#ffffff" offset="0"/>
      <stop stop-color="#ffffff" offset="1"/>
    </linearGradient>
    <linearGradient gradientTransform="matrix(6.123233995736766e-17,1,-1,6.123233995736766e-17,0,0)" id="SvgjsLinearGradient1062">
      <stop stop-color="#1c140d" offset="0"/>
      <stop stop-color="#151c0d" offset="1"/>
    </linearGradient>
    <linearGradient gradientTransform="matrix(6.123233995736766e-17,1,-1,6.123233995736766e-17,0,0)" id="SvgjsLinearGradient1063">
      <stop stop-color="#cbe86b" offset="0"/>
      <stop stop-color="#6be888" offset="1"/>
    </linearGradient>
    <linearGradient gradientTransform="matrix(6.123233995736766e-17,1,-1,6.123233995736766e-17,0,0)" id="SvgjsLinearGradient1064">
      <stop stop-color="#cbe86b" offset="0"/>
      <stop stop-color="#6be888" offset="1"/>
    </linearGradient>
    <linearGradient gradientTransform="matrix(6.123233995736766e-17,1,-1,6.123233995736766e-17,0,0)" id="SvgjsLinearGradient1065">
      <stop stop-color="#f2e9e1" offset="0"/>
      <stop stop-color="#eaf2e1" offset="1"/>
    </linearGradient>
  </defs>
  <rect width="900" height="512" fill="#0a1b02ff" style=""/>
  <rect x="-0.424" y="-0.64" width="900.382" height="512.901" style="fill-rule: nonzero; paint-order: fill; fill: rgb(10, 27, 2); stroke: rgba(0, 0, 0, 0);"/>
  <polygon points="0,0 84.74980066861906,0 88.00670407954448,79.77510903208906 82.78736985315729,85.75721318277326 0,86.13915574131002 0,0" stroke-width="2" stroke="#0a1b02" fill="url(#SvgjsLinearGradient1061)" style="fill-opacity: 0.05;"/>
  <polygon points="177.51782082956007,0 173.30498502261383,79.09347858371038 88.00670407954448,79.77510903208906 84.74980066861906,0 177.51782082956007,0" stroke-width="2" stroke="#0a1b02" fill="url(#SvgjsLinearGradient1062)" style="fill-opacity: 0.05;"/>
  <polygon points="258.9757414046,89.34174264853141 180.6572482238547,87.87214975331159 173.30498502261383,79.09347858371038 177.51782082956007,0 266.76592662470586,0 269.67714983901044,77.53383306287483 258.9757414046,89.34174264853141" stroke-width="2" stroke="#0a1b02" fill="url(#SvgjsLinearGradient1063)" style="fill-opacity: 0.05;"/>
  <polygon points="356.77239021146835,86.45548802496384 269.67714983901044,77.53383306287483 266.76592662470586,0 366.8013663495837,0 364.88851218869985,78.73290910669203 356.77239021146835,86.45548802496384" stroke-width="2" stroke="#0a1b02" fill="url(#SvgjsLinearGradient1064)" style="fill-opacity: 0.05;"/>
  <polygon points="448.84125317966607,93.21085729106588 364.88851218869985,78.73290910669203 366.8013663495837,0 466.85291372033606,0 467.4968706656181,74.50246185868487 448.84125317966607,93.21085729106588" stroke-width="2" stroke="#0a1b02" fill="url(#SvgjsLinearGradient1065)" style="fill-opacity: 0.05;"/>
  <polygon points="552.8867870189371,94.61368226278793 467.4968706656181,74.50246185868487 466.85291372033606,0 572.1232006812634,0 571.9552392160939,74.70665320373246 552.8867870189371,94.61368226278793" stroke-width="2" stroke="#0a1b02" fill="url(#SvgjsLinearGradient1061)" style="fill-opacity: 0.05;"/>
  <polygon points="665.2929123991149,95.03274600308794 571.9552392160939,74.70665320373246 572.1232006812634,0 679.2633833752127,0 678.4600056193855,80.43524686844016 665.2929123991149,95.03274600308794" stroke-width="2" stroke="#0a1b02" fill="url(#SvgjsLinearGradient1062)" style="fill-opacity: 0.05;"/>
  <polygon points="779.0862756442884,93.02700208214861 678.4600056193855,80.43524686844016 679.2633833752127,0 787.3068342266765,0 788.984575467578,79.93573501337671 779.0862756442884,93.02700208214861" stroke-width="2" stroke="#0a1b02" fill="url(#SvgjsLinearGradient1063)" style="fill-opacity: 0.05;"/>
  <polygon points="900,85.67922984396932 788.984575467578,79.93573501337671 787.3068342266765,0 900,0 900,85.67922984396932" stroke-width="2" stroke="#0a1b02" fill="url(#SvgjsLinearGradient1064)" style="fill-opacity: 0.05;"/>
  <polygon points="90.93509142167625,161.10951455011272 81.2145169617352,172.50655629913587 0,171.9530029312872 0,86.13915574131002 82.78736985315729,85.75721318277326 90.93509142167625,161.10951455011272" stroke-width="2" stroke="#0a1b02" fill="url(#SvgjsLinearGradient1065)" style="fill-opacity: 0.05;"/>
  <polygon points="180.6572482238547,87.87214975331159 169.3830132660749,161.52185811883285 90.93509142167625,161.10951455011272 82.78736985315729,85.75721318277326 88.00670407954448,79.77510903208906 173.30498502261383,79.09347858371038 180.6572482238547,87.87214975331159" stroke-width="2" stroke="#0a1b02" fill="url(#SvgjsLinearGradient1061)" style="fill-opacity: 0.05;"/>
  <polygon points="258.9757414046,89.34174264853141 268.347947441921,173.3329832675645 267.1383460734446,174.94688411765244 181.95143042242154,177.4281589215117 169.3830132660749,161.52185811883285 180.6572482238547,87.87214975331159 258.9757414046,89.34174264853141" stroke-width="2" stroke="#0a1b02" fill="url(#SvgjsLinearGradient1062)" style="fill-opacity: 0.05;"/>
  <polygon points="351.8246407131492,160.54369385507576 268.347947441921,173.3329832675645 258.9757414046,89.34174264853141 269.67714983901044,77.53383306287483 356.77239021146835,86.45548802496384 351.8246407131492,160.54369385507576" stroke-width="2" stroke="#0a1b02" fill="url(#SvgjsLinearGradient1063)" style="fill-opacity: 0.05;"/>
  <polygon points="450.7959309543161,160.7771994693847 374.349327680489,182.9285063221356 351.8246407131492,160.54369385507576 356.77239021146835,86.45548802496384 364.88851218869985,78.73290910669203 448.84125317966607,93.21085729106588 450.7959309543161,160.7771994693847" stroke-width="2" stroke="#0a1b02" fill="url(#SvgjsLinearGradient1064)" style="fill-opacity: 0.05;"/>
  <polygon points="450.7959309543161,160.7771994693847 448.84125317966607,93.21085729106588 467.4968706656181,74.50246185868487 552.8867870189371,94.61368226278793 553.0317570216093,154.11240777934395 477.54365499496004,183.32819780707936 450.7959309543161,160.7771994693847" stroke-width="2" stroke="#0a1b02" fill="url(#SvgjsLinearGradient1065)" style="fill-opacity: 0.05;"/>
  <polygon points="552.8867870189371,94.61368226278793 571.9552392160939,74.70665320373246 665.2929123991149,95.03274600308794 663.5475628922701,153.45853508648918 586.3258372823692,183.62170437029027 553.0317570216093,154.11240777934395 552.8867870189371,94.61368226278793" stroke-width="2" stroke="#0a1b02" fill="url(#SvgjsLinearGradient1061)" style="fill-opacity: 0.05;"/>
  <polygon points="665.2929123991149,95.03274600308794 678.4600056193855,80.43524686844016 779.0862756442884,93.02700208214861 782.1536534081691,159.56868700790525 695.3993190584772,185.00916035966017 663.5475628922701,153.45853508648918 665.2929123991149,95.03274600308794" stroke-width="2" stroke="#0a1b02" fill="url(#SvgjsLinearGradient1062)" style="fill-opacity: 0.05;"/>
  <polygon points="779.0862756442884,93.02700208214861 788.984575467578,79.93573501337671 900,85.67922984396932 900,159.7501281646847 795.941245007452,173.18139667190542 782.1536534081691,159.56868700790525 779.0862756442884,93.02700208214861" stroke-width="2" stroke="#0a1b02" fill="url(#SvgjsLinearGradient1063)" style="fill-opacity: 0.05;"/>
  <polygon points="91.30610455383956,243.70321147118207 76.98551879312652,259.50451960302865 0,258.44510445699785 0,171.9530029312872 81.2145169617352,172.50655629913587 91.30610455383956,243.70321147118207" stroke-width="2" stroke="#0a1b02" fill="url(#SvgjsLinearGradient1064)" style="fill-opacity: 0.05;"/>
  <polygon points="181.95143042242154,177.4281589215117 168.98703291803452,249.18883757134196 91.30610455383956,243.70321147118207 81.2145169617352,172.50655629913587 90.93509142167625,161.10951455011272 169.3830132660749,161.52185811883285 181.95143042242154,177.4281589215117" stroke-width="2" stroke="#0a1b02" fill="url(#SvgjsLinearGradient1065)" style="fill-opacity: 0.05;"/>
  <polygon points="274.08365441282706,243.09610187817123 247.37713556522,268.5759552139431 174.2231713834369,256.4955531510077 168.98703291803452,249.18883757134196 181.95143042242154,177.4281589215117 267.1383460734446,174.94688411765244 274.08365441282706,243.09610187817123" stroke-width="2" stroke="#0a1b02" fill="url(#SvgjsLinearGradient1061)" style="fill-opacity: 0.05;"/>
  <polygon points="351.8246407131492,160.54369385507576 374.349327680489,182.9285063221356 371.677103770423,241.5432005681131 343.01036085058286,263.4867402244078 274.08365441282706,243.09610187817123 267.1383460734446,174.94688411765244 268.347947441921,173.3329832675645 351.8246407131492,160.54369385507576" stroke-width="2" stroke="#0a1b02" fill="url(#SvgjsLinearGradient1062)" style="fill-opacity: 0.05;"/>
  <polygon points="450.7959309543161,160.7771994693847 477.54365499496004,183.32819780707936 479.2983807589232,238.62392547604222 439.7541642505783,270.28941239785945 371.677103770423,241.5432005681131 374.349327680489,182.9285063221356 450.7959309543161,160.7771994693847" stroke-width="2" stroke="#0a1b02" fill="url(#SvgjsLinearGradient1063)" style="fill-opacity: 0.05;"/>
  <polygon points="477.54365499496004,183.32819780707936 553.0317570216093,154.11240777934395 586.3258372823692,183.62170437029027 585.7649276716421,237.66363725019445 544.8512117078881,269.5175938197736 479.2983807589232,238.62392547604222 477.54365499496004,183.32819780707936" stroke-width="2" stroke="#0a1b02" fill="url(#SvgjsLinearGradient1064)" style="fill-opacity: 0.05;"/>
  <polygon points="586.3258372823692,183.62170437029027 663.5475628922701,153.45853508648918 695.3993190584772,185.00916035966017 692.4502461445142,243.9009261776186 656.7298273345561,272.68091046556196 585.7649276716421,237.66363725019445 586.3258372823692,183.62170437029027" stroke-width="2" stroke="#0a1b02" fill="url(#SvgjsLinearGradient1065)" style="fill-opacity: 0.05;"/>
  <polygon points="695.3993190584772,185.00916035966017 782.1536534081691,159.56868700790525 795.941245007452,173.18139667190542 801.5310820148017,246.4830709624996 773.8059747997454,277.6474038491571 692.4502461445142,243.9009261776186 695.3993190584772,185.00916035966017" stroke-width="2" stroke="#0a1b02" fill="url(#SvgjsLinearGradient1061)" style="fill-opacity: 0.05;"/>
  <polygon points="900,261.9575979274089 801.5310820148017,246.4830709624996 795.941245007452,173.18139667190542 900,159.7501281646847 900,261.9575979274089" stroke-width="2" stroke="#0a1b02" fill="url(#SvgjsLinearGradient1062)" style="fill-opacity: 0.05;"/>
  <polygon points="0,258.44510445699785 76.98551879312652,259.50451960302865 89.68197344793973,339.1828668557952 86.4414963573534,343.0732754342699 0,346.29488939202923 0,258.44510445699785" stroke-width="2" stroke="#0a1b02" fill="url(#SvgjsLinearGradient1063)" style="fill-opacity: 0.05;"/>
  <polygon points="174.2231713834369,256.4955531510077 158.65758862027562,331.3094037854918 89.68197344793973,339.1828668557952 76.98551879312652,259.50451960302865 91.30610455383956,243.70321147118207 168.98703291803452,249.18883757134196 174.2231713834369,256.4955531510077" stroke-width="2" stroke="#0a1b02" fill="url(#SvgjsLinearGradient1064)" style="fill-opacity: 0.05;"/>
  <polygon points="174.2231713834369,256.4955531510077 247.37713556522,268.5759552139431 255.0668894008282,337.4868270888923 184.97252132981805,357.3529379699889 158.65758862027562,331.3094037854918 174.2231713834369,256.4955531510077" stroke-width="2" stroke="#0a1b02" fill="url(#SvgjsLinearGradient1065)" style="fill-opacity: 0.05;"/>
  <polygon points="274.08365441282706,243.09610187817123 343.01036085058286,263.4867402244078 341.52844448787823,328.8420966445378 276.8334068570959,352.75818886829734 255.0668894008282,337.4868270888923 247.37713556522,268.5759552139431 274.08365441282706,243.09610187817123" stroke-width="2" stroke="#0a1b02" fill="url(#SvgjsLinearGradient1061)" style="fill-opacity: 0.05;"/>
  <polygon points="439.7541642505783,270.28941239785945 440.94414384485555,327.14762302739996 377.89074867812434,355.65382415724696 341.52844448787823,328.8420966445378 343.01036085058286,263.4867402244078 371.677103770423,241.5432005681131 439.7541642505783,270.28941239785945" stroke-width="2" stroke="#0a1b02" fill="url(#SvgjsLinearGradient1062)" style="fill-opacity: 0.05;"/>
  <polygon points="439.7541642505783,270.28941239785945 479.2983807589232,238.62392547604222 544.8512117078881,269.5175938197736 544.9635366387761,324.0947588109423 478.84858451931643,354.463217012163 440.94414384485555,327.14762302739996 439.7541642505783,270.28941239785945" stroke-width="2" stroke="#0a1b02" fill="url(#SvgjsLinearGradient1063)" style="fill-opacity: 0.05;"/>
  <polygon points="585.7649276716421,237.66363725019445 656.7298273345561,272.68091046556196 654.4517169137278,323.7096212707707 583.5697310508488,354.53706078315355 544.9635366387761,324.0947588109423 544.8512117078881,269.5175938197736 585.7649276716421,237.66363725019445" stroke-width="2" stroke="#0a1b02" fill="url(#SvgjsLinearGradient1064)" style="fill-opacity: 0.05;"/>
  <polygon points="656.7298273345561,272.68091046556196 692.4502461445142,243.9009261776186 773.8059747997454,277.6474038491571 775.7113173623119,325.44913974841074 691.2984887256032,358.26560488644174 654.4517169137278,323.7096212707707 656.7298273345561,272.68091046556196" stroke-width="2" stroke="#0a1b02" fill="url(#SvgjsLinearGradient1065)" style="fill-opacity: 0.05;"/>
  <polygon points="801.5310820148017,246.4830709624996 900,261.9575979274089 900,331.10436992389396 796.1474888541383,346.4890668526913 775.7113173623119,325.44913974841074 773.8059747997454,277.6474038491571 801.5310820148017,246.4830709624996" stroke-width="2" stroke="#0a1b02" fill="url(#SvgjsLinearGradient1061)" style="fill-opacity: 0.05;"/>
  <polygon points="92.29037853889794,419.3677239389597 81.02012862008803,430.4350284597359 0,426.78421915441515 0,346.29488939202923 86.4414963573534,343.0732754342699 92.29037853889794,419.3677239389597" stroke-width="2" stroke="#0a1b02" fill="url(#SvgjsLinearGradient1062)" style="fill-opacity: 0.05;"/>
  <polygon points="184.97252132981805,357.3529379699889 179.14315418094583,419.6294912949879 168.47204618953901,428.52523112243534 92.29037853889794,419.3677239389597 86.4414963573534,343.0732754342699 89.68197344793973,339.1828668557952 158.65758862027562,331.3094037854918 184.97252132981805,357.3529379699889" stroke-width="2" stroke="#0a1b02" fill="url(#SvgjsLinearGradient1063)" style="fill-opacity: 0.05;"/>
  <polygon points="276.8334068570959,352.75818886829734 280.5063633923676,416.71271162844056 256.26637138761254,438.7801179948076 179.14315418094583,419.6294912949879 184.97252132981805,357.3529379699889 255.0668894008282,337.4868270888923 276.8334068570959,352.75818886829734" stroke-width="2" stroke="#0a1b02" fill="url(#SvgjsLinearGradient1064)" style="fill-opacity: 0.05;"/>
  <polygon points="377.89074867812434,355.65382415724696 377.2479774573544,415.0221709879429 352.283267281931,436.4981100139115 280.5063633923676,416.71271162844056 276.8334068570959,352.75818886829734 341.52844448787823,328.8420966445378 377.89074867812434,355.65382415724696" stroke-width="2" stroke="#0a1b02" fill="url(#SvgjsLinearGradient1065)" style="fill-opacity: 0.05;"/>
  <polygon points="377.89074867812434,355.65382415724696 440.94414384485555,327.14762302739996 478.84858451931643,354.463217012163 479.9508547756342,414.40109312714657 452.633655557902,439.0627226929868 377.2479774573544,415.0221709879429 377.89074867812434,355.65382415724696" stroke-width="2" stroke="#0a1b02" fill="url(#SvgjsLinearGradient1061)" style="fill-opacity: 0.05;"/>
  <polygon points="544.9635366387761,324.0947588109423 583.5697310508488,354.53706078315355 583.2839208511307,414.55223445590974 558.0891554415606,438.1579613107142 479.9508547756342,414.40109312714657 478.84858451931643,354.463217012163 544.9635366387761,324.0947588109423" stroke-width="2" stroke="#0a1b02" fill="url(#SvgjsLinearGradient1062)" style="fill-opacity: 0.05;"/>
  <polygon points="583.2839208511307,414.55223445590974 583.5697310508488,354.53706078315355 654.4517169137278,323.7096212707707 691.2984887256032,358.26560488644174 689.94419088291,416.6139435984581 667.9892226835224,438.62396729946926 583.2839208511307,414.55223445590974" stroke-width="2" stroke="#0a1b02" fill="url(#SvgjsLinearGradient1063)" style="fill-opacity: 0.05;"/>
  <polygon points="691.2984887256032,358.26560488644174 775.7113173623119,325.44913974841074 796.1474888541383,346.4890668526913 798.5063335996117,421.1832772273083 781.954020765905,440.1225495052446 689.94419088291,416.6139435984581 691.2984887256032,358.26560488644174" stroke-width="2" stroke="#0a1b02" fill="url(#SvgjsLinearGradient1064)" style="fill-opacity: 0.05;"/>
  <polygon points="900,431.219161141829 798.5063335996117,421.1832772273083 796.1474888541383,346.4890668526913 900,331.10436992389396 900,431.219161141829" stroke-width="2" stroke="#0a1b02" fill="url(#SvgjsLinearGradient1065)" style="fill-opacity: 0.05;"/>
  <polygon points="0,426.78421915441515 81.02012862008803,430.4350284597359 83.89058741888445,512 0,512 0,426.78421915441515" stroke-width="2" stroke="#0a1b02" fill="url(#SvgjsLinearGradient1061)" style="fill-opacity: 0.05;"/>
  <polygon points="168.47204618953901,428.52523112243534 165.47959867596907,512 83.89058741888445,512 81.02012862008803,430.4350284597359 92.29037853889794,419.3677239389597 168.47204618953901,428.52523112243534" stroke-width="2" stroke="#0a1b02" fill="url(#SvgjsLinearGradient1062)" style="fill-opacity: 0.05;"/>
  <polygon points="165.47959867596907,512 168.47204618953901,428.52523112243534 179.14315418094583,419.6294912949879 256.26637138761254,438.7801179948076 257.4687078247219,512 165.47959867596907,512" stroke-width="2" stroke="#0a1b02" fill="url(#SvgjsLinearGradient1063)" style="fill-opacity: 0.05;"/>
  <polygon points="352.283267281931,436.4981100139115 352.1693665091669,512 257.4687078247219,512 256.26637138761254,438.7801179948076 280.5063633923676,416.71271162844056 352.283267281931,436.4981100139115" stroke-width="2" stroke="#0a1b02" fill="url(#SvgjsLinearGradient1064)" style="fill-opacity: 0.05;"/>
  <polygon points="377.2479774573544,415.0221709879429 452.633655557902,439.0627226929868 452.8301043013018,512 352.1693665091669,512 352.283267281931,436.4981100139115 377.2479774573544,415.0221709879429" stroke-width="2" stroke="#0a1b02" fill="url(#SvgjsLinearGradient1065)" style="fill-opacity: 0.05;"/>
  <polygon points="479.9508547756342,414.40109312714657 558.0891554415606,438.1579613107142 558.053541960673,512 452.8301043013018,512 452.633655557902,439.0627226929868 479.9508547756342,414.40109312714657" stroke-width="2" stroke="#0a1b02" fill="url(#SvgjsLinearGradient1061)" style="fill-opacity: 0.05;"/>
  <polygon points="583.2839208511307,414.55223445590974 667.9892226835224,438.62396729946926 667.2082642745354,512 558.053541960673,512 558.0891554415606,438.1579613107142 583.2839208511307,414.55223445590974" stroke-width="2" stroke="#0a1b02" fill="url(#SvgjsLinearGradient1062)" style="fill-opacity: 0.05;"/>
  <polygon points="667.2082642745354,512 667.9892226835224,438.62396729946926 689.94419088291,416.6139435984581 781.954020765905,440.1225495052446 782.6020918697524,512 667.2082642745354,512" stroke-width="2" stroke="#0a1b02" fill="url(#SvgjsLinearGradient1063)" style="fill-opacity: 0.05;"/>
  <polygon points="900,512 782.6020918697524,512 781.954020765905,440.1225495052446 798.5063335996117,421.1832772273083 900,431.219161141829 900,512" stroke-width="2" stroke="#0a1b02" fill="url(#SvgjsLinearGradient1064)" style="fill-opacity: 0.05;"/>
</svg>